<svg width="908" height="908" viewBox="0 0 908 908" fill="none" xmlns="http://www.w3.org/2000/svg">
<path d="M454 908C704.737 908 908 704.737 908 454C908 203.263 704.737 0 454 0C203.263 0 0 203.263 0 454C0 704.737 203.263 908 454 908Z" fill="url(#paint0_linear)"/>
<path d="M231.945 445.347L221.006 448.49L221.08 462.535L232.188 459.343L232.218 478.365L221.11 481.555L221.466 498.828L201.539 504.553L201.268 487.254L190.5 490.348L190.771 507.647L170.759 513.395L170.743 496.024L159.635 499.214L159.604 480.194L170.543 477.051L170.469 463.008L159.361 466.198L159.161 447.225L170.269 444.035L170.107 426.155L189.864 420.478L190.111 438.334L200.88 435.242L200.802 417.336L220.644 411.637L220.637 429.565L231.745 426.374L231.945 445.347ZM190.226 457.331L190.3 471.377L201.238 468.234L201.249 454.164L190.226 457.331Z" fill="white"/>
<path d="M403.481 443.375C397.576 452.363 390.281 460.053 381.597 466.445C372.911 472.838 363.356 477.529 352.933 480.517C344.938 482.81 336.912 483.966 328.86 483.984C320.91 484.06 313.14 483.147 305.557 481.25C298.027 479.254 290.834 476.355 283.977 472.553C277.12 468.752 270.847 464.188 265.164 458.86C259.536 453.436 254.608 447.341 250.38 440.58C246.207 433.718 242.974 426.29 240.682 418.295C238.389 410.301 237.195 402.288 237.097 394.259C237.079 386.205 238.029 378.427 239.948 370.92C241.923 363.314 244.811 356.082 248.613 349.225C252.413 342.365 256.99 336.134 262.339 330.53C267.742 324.823 273.835 319.895 280.619 315.743C287.457 311.493 294.875 308.221 302.87 305.928C313.294 302.94 323.882 301.855 334.634 302.674C345.366 303.412 355.628 306.069 365.42 310.64L355.978 345.157C349.512 341.243 342.504 338.84 334.955 337.953C327.383 336.985 319.913 337.559 312.545 339.67C305.098 341.807 298.528 345.217 292.832 349.903C287.134 354.592 282.555 360.061 279.087 366.315C275.599 372.488 273.389 379.272 272.455 386.664C271.497 393.98 272.076 401.32 274.19 408.688C276.301 416.057 279.7 422.587 284.389 428.283C289.052 433.901 294.513 438.443 300.764 441.911C307.019 445.376 313.8 447.586 321.116 448.544C328.43 449.499 335.811 448.912 343.258 446.775C350.623 444.664 357.274 441.23 363.205 436.473C369.115 431.641 373.772 425.851 377.182 419.107L403.481 443.375Z" fill="white"/>
<path d="M493.535 363.351L483.86 329.609C482.534 324.983 480.384 320.891 477.412 317.332C474.498 313.674 471.075 310.755 467.14 308.573C463.208 306.392 458.916 305.038 454.266 304.503C449.674 303.869 445.066 304.216 440.443 305.541C435.817 306.867 431.686 309.027 428.049 312.02C424.469 314.914 421.589 318.327 419.407 322.261C417.226 326.193 415.83 330.496 415.22 335.166C414.664 339.738 415.05 344.335 416.375 348.958L426.05 382.701L493.535 363.351ZM546.593 421.04L512.853 430.718L503.176 396.976L435.691 416.325L445.369 450.067L411.744 459.708L382.751 358.599C380.076 349.274 379.333 340.027 380.522 330.866C381.691 321.625 384.415 313.082 388.697 305.239C393.057 297.372 398.808 290.505 405.949 284.642C413.166 278.755 421.44 274.474 430.768 271.799C440.093 269.125 449.337 268.382 458.501 269.572C467.743 270.739 476.296 273.503 484.162 277.863C492.029 282.223 498.907 288.013 504.793 295.233C510.659 302.371 514.927 310.606 517.602 319.934L546.593 421.04Z" fill="white"/>
<path d="M556.497 272.264L575.847 339.748L609.589 330.073C614.212 328.745 618.317 326.637 621.896 323.743C625.455 320.771 628.325 317.319 630.504 313.387C632.685 309.453 634.053 305.202 634.608 300.631C635.222 295.961 634.864 291.314 633.539 286.688C632.211 282.064 630.063 277.973 627.091 274.414C624.177 270.753 620.751 267.834 616.819 265.654C612.884 263.474 608.634 262.106 604.063 261.55C599.47 260.916 594.863 261.262 590.236 262.588L556.497 272.264ZM595.163 407.115L561.42 416.79L513.077 248.197L580.562 228.846C586.753 227.071 592.947 226.185 599.142 226.191C605.312 226.118 611.293 226.863 617.085 228.425C622.932 229.887 628.49 232.11 633.758 235.095C639.081 237.98 643.91 241.515 648.249 245.699C652.667 249.862 656.479 254.579 659.685 259.851C662.973 265.101 665.504 270.821 667.281 277.013C669.932 286.262 670.675 295.507 669.506 304.748C668.317 313.912 665.543 322.426 661.18 330.292C656.82 338.159 651.031 345.034 643.814 350.923C636.672 356.786 628.479 361.044 619.23 363.698L585.488 373.373L595.163 407.115Z" fill="white"/>
<path d="M735.436 366.892L701.693 376.566L653.35 207.974L687.092 198.299L735.436 366.892Z" fill="white"/>
<path d="M338.102 671.126C332.197 680.115 324.902 687.804 316.219 694.197C307.533 700.589 297.978 705.281 287.554 708.268C279.56 710.562 271.534 711.717 263.482 711.736C255.529 711.811 247.762 710.898 240.178 709.004C232.65 707.005 225.456 704.106 218.598 700.305C211.74 696.503 205.469 691.94 199.786 686.614C194.159 681.187 189.23 675.092 185.001 668.332C180.828 661.47 177.596 654.041 175.303 646.047C173.011 638.052 171.816 630.039 171.719 622.011C171.7 613.956 172.65 606.178 174.569 598.671C176.545 591.066 179.433 583.833 183.234 576.976C187.036 570.116 191.611 563.886 196.959 558.281C202.363 552.575 208.457 547.646 215.24 543.495C222.079 539.244 229.496 535.972 237.491 533.679C247.915 530.691 258.503 529.606 269.256 530.425C279.987 531.164 290.249 533.82 300.042 538.391L290.599 572.908C284.133 568.994 277.125 566.594 269.577 565.704C262.002 564.736 254.535 565.31 247.166 567.421C239.72 569.558 233.149 572.968 227.453 577.654C221.756 582.343 217.175 587.812 213.709 594.066C210.22 600.24 208.009 607.023 207.076 614.415C206.119 621.731 206.698 629.071 208.81 636.44C210.923 643.808 214.323 650.339 219.01 656.035C223.674 661.652 229.133 666.195 235.386 669.662C241.639 673.127 248.422 675.337 255.738 676.295C263.051 677.25 270.433 676.663 277.877 674.526C285.245 672.415 291.896 668.981 297.827 664.225C303.736 659.393 308.394 653.603 311.804 646.858L338.102 671.126Z" fill="white"/>
<path d="M484.522 557.381C486.813 565.376 487.969 573.399 487.987 581.451C488.063 589.404 487.152 597.171 485.256 604.756C483.335 612.263 480.475 619.444 476.674 626.303C472.872 633.16 468.309 639.43 462.983 645.115C457.635 650.72 451.529 655.61 444.669 659.782C437.831 664.032 430.413 667.304 422.418 669.598C414.424 671.888 406.4 673.044 398.346 673.065C390.396 673.138 382.628 672.228 375.043 670.331C367.513 668.335 360.322 665.433 353.462 661.632C346.605 657.83 340.333 653.267 334.65 647.941C329.022 642.514 324.096 636.422 319.866 629.661C315.694 622.799 312.462 615.371 310.168 607.376C307.875 599.381 306.68 591.369 306.583 583.338C306.565 575.286 307.515 567.508 309.435 560.001C311.431 552.473 314.332 545.28 318.134 538.42C321.933 531.563 326.509 525.332 331.858 519.725C337.283 514.1 343.388 509.21 350.172 505.059C357.011 500.809 364.429 497.537 372.423 495.243C380.418 492.952 388.441 491.797 396.493 491.776C404.524 491.679 412.292 492.59 419.799 494.51C427.305 496.428 434.486 499.29 441.345 503.092C448.202 506.893 454.433 511.467 460.038 516.816C465.645 522.165 470.532 528.268 474.707 535.13C478.957 541.969 482.229 549.387 484.522 557.381ZM451.015 566.988C448.902 559.623 445.502 553.089 440.816 547.393C436.106 541.619 430.635 537.037 424.406 533.651C418.231 530.162 411.447 527.95 404.055 527.015C396.739 526.06 389.399 526.637 382.031 528.751C374.584 530.885 368.014 534.298 362.318 538.984C356.622 543.67 352.04 549.141 348.573 555.393C345.084 561.569 342.874 568.353 341.94 575.745C340.985 583.058 341.562 590.401 343.675 597.769C345.789 605.135 349.189 611.668 353.875 617.364C358.54 622.982 363.998 627.524 370.25 630.989C376.504 634.457 383.288 636.667 390.602 637.624C397.915 638.579 405.297 637.99 412.743 635.855C420.109 633.742 426.643 630.342 432.338 625.656C438.113 620.946 442.694 615.475 446.081 609.247C449.549 602.993 451.772 596.248 452.75 589.013C453.705 581.696 453.128 574.357 451.015 566.988Z" fill="white"/>
<path d="M651.114 600.076L615.021 610.424L518.184 518.084L550.005 629.066L516.263 638.744L467.92 470.151L504.016 459.8L600.887 552.26L569.029 441.157L602.771 431.482L651.114 600.076Z" fill="white"/>
<path d="M701.8 585.542L668.058 595.217L619.715 426.624L737.755 392.777L747.43 426.519L663.132 450.691L672.81 484.433L723.363 469.936L733.038 503.679L682.485 518.175L701.8 585.542Z" fill="white"/>
<defs>
<linearGradient id="paint0_linear" x1="454" y1="0" x2="454" y2="908" gradientUnits="userSpaceOnUse">
<stop stop-color="#FF6001"/>
<stop offset="1" stop-color="#FF0E5A"/>
</linearGradient>
</defs>
</svg>
