<svg width="137" height="137" viewBox="0 0 137 137" fill="none" xmlns="http://www.w3.org/2000/svg">
<path fill-rule="evenodd" clip-rule="evenodd" d="M25.0237 0.911063L111.351 0.962083C124.902 0.962083 136.067 12.1271 136.016 25.7287V112.055C136.016 125.658 124.851 136.772 111.25 136.772L24.8714 136.721C11.2698 136.671 0.155884 125.557 0.155884 111.955L0.257152 25.6266C0.257152 12.0258 11.3719 0.860042 25.0237 0.911063Z" fill="white"/>
<path fill-rule="evenodd" clip-rule="evenodd" d="M116.883 62.8774H107.038L102.978 70.5916H109.879L116.883 62.8774ZM123.43 75.4138H113.838V96.1196C113.838 102.464 109.574 104.291 106.429 104.291C103.434 104.291 100.134 103.174 100.186 97.6409V75.413H90.5944L90.5434 99.0115C90.5434 108.146 95.7722 112.206 102.978 112.206C108.002 112.257 111.911 110.074 114.092 106.218H114.194V111.243H123.431V75.4138H123.43ZM83.082 84.9028C83.082 76.0222 73.7453 74.449 68.5683 74.449C61.1077 74.449 53.3425 76.0222 52.1752 86.9838H61.4625C61.7671 84.9036 62.6298 82.0101 67.4002 82.0101C69.8871 82.0101 73.7453 82.2142 73.7453 86.1729C73.7453 88.2021 71.8668 88.8121 70.3439 89.0146L61.7168 90.2832C55.5758 91.1466 51.0087 94.749 51.0087 101.753C51.0087 109.162 56.6929 112.207 62.1227 112.207C68.7206 112.207 71.8158 109.213 73.9478 107.032C74.1504 109.012 74.3027 109.519 74.8616 111.244L83.1338 111.193C83.1338 107.234 83.0828 104.342 83.0828 104.291V84.9028H83.082ZM42.1775 62.8774H32.5857V75.362H27.612V82.1121H32.5347V103.884C32.5347 108.501 34.0065 111.649 42.3298 111.649H43.5992C45.1213 111.649 46.6434 111.546 48.116 111.497V104.34C47.4558 104.391 46.7462 104.492 46.1363 104.492C42.2286 104.492 42.1265 103.68 42.1265 101.548L42.1775 82.1114H48.1663V75.3612H42.1775V62.8774ZM23.1972 62.8264H12.8439L12.7928 111.192H23.1461L23.1972 62.8264Z" fill="black"/>
<path fill-rule="evenodd" clip-rule="evenodd" d="M73.7453 98.4035V93.7861C72.7806 94.5468 71.1556 95.1552 67.1977 95.7141C63.5946 96.3225 60.6508 97.2362 60.6508 101.145C60.6508 104.392 63.29 105.458 65.1167 105.458C69.3808 105.459 73.7453 102.769 73.7453 98.4035Z" fill="white"/>
</svg>
