<?xml version="1.0" encoding="utf-8"?>
<!-- Generator: Adobe Illustrator 23.0.0, SVG Export Plug-In . SVG Version: 6.00 Build 0)  -->
<svg version="1.1" id="Layer_1" xmlns="http://www.w3.org/2000/svg" xmlns:xlink="http://www.w3.org/1999/xlink" x="0px" y="0px"
	 viewBox="0 0 200.9 231.2" style="enable-background:new 0 0 200.9 231.2;" xml:space="preserve">
<g>
	<g>
		<polygon points="200.9,95.5 185.3,95.5 185.3,16 100.4,16 100.4,0 200.9,0 		"/>
	</g>
	<g>
		<polygon points="84.5,231.2 84.5,174.2 0,174.2 0,79.5 16,79.5 16,158.2 100.5,158.2 100.5,195.1 137.7,158.4 157.8,158.6 		"/>
	</g>
	<rect x="8.5" y="82.4" transform="matrix(0.4709 -0.8822 0.8822 0.4709 -44.0273 106.1472)" width="116" height="14.7"/>
	<g>
		<g>
			<rect x="135.2" y="26.3" width="14.9" height="52.4"/>
		</g>
		<g>
			<rect x="135.2" y="26.3" transform="matrix(0.4226 -0.9063 0.9063 0.4226 34.8561 159.5961)" width="14.9" height="52.3"/>
		</g>
		<g>
			<rect x="116.5" y="44.9" transform="matrix(0.9063 -0.4226 0.4226 0.9063 -8.7977 65.2115)" width="52.3" height="15.1"/>
		</g>
	</g>
	<polygon points="136,72.2 150.9,65.3 150.9,65 151.2,65.1 168.9,56.9 160.6,53.1 136,64.6 	"/>
</g>
</svg>
