<svg xmlns="http://www.w3.org/2000/svg" width="179" height="80" viewBox="0 0 179 80" fill="none"><path d="M31.4505 22.4829C24.268 22.4829 18.6091 24.7749 14.3649 29.0314V0H0V78.5812H14.3649V54.4611C14.3649 41.146 19.6974 35.6889 27.8593 35.6889C34.4976 35.6889 38.8506 40.8186 38.8506 48.4584V78.5812H53.2156V45.4025C53.2156 31.869 44.5095 22.4829 31.4505 22.4829Z" fill="#090D17"></path><path d="M77.1775 22.8104C60.9626 22.8104 47.577 34.2701 47.577 51.4052C47.577 68.5402 60.9626 80 77.1775 80C93.066 80 106.452 68.5402 106.452 51.4052C106.452 34.2701 93.066 22.8104 77.1775 22.8104ZM77.1775 67.6671C69.3421 67.6671 61.5067 61.5552 61.5067 51.4052C61.5067 41.2551 69.3421 35.1432 77.1775 35.1432C84.6865 35.1432 92.5219 41.2551 92.5219 51.4052C92.5219 61.5552 84.6865 67.6671 77.1775 67.6671Z" fill="#090D17"></path><path d="M178.462 24.1201H164.205L153.432 57.7353L142.332 24.1201H131.123L120.022 57.6262L109.249 24.1201H94.9926L113.058 78.6903H126.008L136.781 46.603L147.446 78.6903H160.397L178.462 24.1201Z" fill="#090D17"></path></svg>