<svg id="Layer_1" data-name="Layer 1" xmlns="http://www.w3.org/2000/svg" viewBox="0 0 2585 510"><defs><style>.cls-1,.cls-2{fill:#fc5b3f;}.cls-2{font-size:43px;font-family:TussilagoHv-Regular, Tussilago;letter-spacing:0.06em;}</style></defs><path class="cls-1" d="M263.26,253.1c-3.53-13.82-32-21.95-65.31-21.95-39.84,0-61.25,6.23-61.25,19,0,16,23,16.26,39.57,16.26,13.82,0,23.3-.28,51.22-.28,49.59,0,84,12.47,84,53.39,0,40.11-34.68,66.94-118.69,66.94-61.52,0-103.79-17.62-117.34-49.87L127.22,323c6,10.57,26,22.5,69.91,22.5,36.86,0,57.46-6.24,57.46-20.06,0-14.09-22.23-16.53-40.38-16.53-14.37,0-26.56.54-46.34.54-33.88,0-89.43-10-89.43-57.45,0-36.85,36.31-60.43,119.24-60.43,68.83,0,104.33,17.62,113.54,44.71Z"/><path class="cls-1" d="M432.63,380.74V243.34H342.39V197.27H873.23v46.07H486.83v137.4Z"/><path class="cls-1" d="M1074.85,380.74,1058,337.92H951.27l-16.8,42.82H874L954,197.27h100.81l79.94,183.47ZM1019,238.46H990.29L967,297.27h75.06Z"/><path class="cls-1" d="M1351.53,380.74c-15.17-16.26-26.55-38.21-33.06-59.89h-90.24v59.89H1174V197.27h159.62c53.65,0,79.4,23.58,79.4,60.16,0,26.56-14.91,48.51-40.65,55.83,7.59,21.68,22.22,45.25,44.71,67.48Zm-123.3-140.11v40.11h105.15c11.92,0,22.22-1.09,22.22-21.68,0-14.09-10.3-18.43-22.5-18.43Z"/><path class="cls-1" d="M1532.83,380.74V243.34h-90.24V197.27h235v46.07H1587v137.4Z"/><path class="cls-1" d="M1723.38,380.74V197.27H2219v42.28H1777.85v27.91h435.7v38.48h-435.7v28.18h444.92v46.62Z"/><path class="cls-1" d="M2444,380.74c-15.17-16.26-26.56-38.21-33.06-59.89h-90.24v59.89h-54.2V197.27h159.62c53.65,0,79.4,23.58,79.4,60.16,0,26.56-14.91,48.51-40.65,55.83,7.59,21.68,22.22,45.25,44.71,67.48Zm-123.3-140.11v40.11h105.15c11.92,0,22.22-1.09,22.22-21.68,0-14.09-10.3-18.43-22.49-18.43Z"/><text class="cls-2" transform="translate(75.78 159.63)">THE</text></svg>