<svg width="25" height="25" viewBox="0 0 25 25" fill="none" xmlns="http://www.w3.org/2000/svg">
<g clip-path="url(#clip0_1043_3565)">
<path d="M14.7804 14.8155C16.9492 13.9347 18.3548 11.8128 18.3199 9.47232C18.3199 6.25547 15.5407 3.63843 12.1246 3.63843C8.70855 3.63843 5.92934 6.25547 5.92934 9.47232C5.8945 11.8128 7.30005 13.9347 9.46887 14.8155L9.51688 14.8416L9.84487 15.3797C9.25931 15.7187 9.05941 16.4681 9.39829 17.0536C9.44285 17.1306 9.49566 17.2025 9.55581 17.268C9.09663 17.7714 9.13241 18.5517 9.63573 19.0109C9.86438 19.2195 10.1631 19.3345 10.4726 19.3331H13.7767C14.458 19.3361 15.0128 18.7862 15.0158 18.1049C15.0171 17.7954 14.9021 17.4967 14.6935 17.268C15.1509 16.7695 15.1174 15.9946 14.6189 15.5372C14.5533 15.4771 14.4814 15.4243 14.4044 15.3797L14.7324 14.8416L14.7804 14.8155ZM13.7767 18.5071H10.4725C10.2444 18.5071 10.0595 18.3222 10.0595 18.0941C10.0595 17.866 10.2444 17.6811 10.4725 17.6811H13.7767C14.0047 17.6811 14.1897 17.866 14.1897 18.0941C14.1897 18.3222 14.0047 18.5071 13.7767 18.5071ZM13.7767 16.855H10.4725C10.2444 16.855 10.0595 16.6701 10.0595 16.442C10.0595 16.2139 10.2444 16.029 10.4725 16.029H13.7767C14.0047 16.029 14.1897 16.2139 14.1897 16.442C14.1897 16.6701 14.0047 16.855 13.7767 16.855ZM14.4055 14.0791L14.2403 14.1688C14.1764 14.2037 14.1228 14.2547 14.0848 14.3168L13.5447 15.203H13.3636V12.0698L15.3077 10.1257L14.7237 9.54165L12.6586 11.6067C12.5812 11.6842 12.5377 11.7892 12.5376 11.8988V15.2029H11.7116V11.8988C11.7115 11.7892 11.668 11.6842 11.5905 11.6067L9.52545 9.54165L8.94144 10.1257L10.8855 12.0697V15.2029H10.7044L10.1643 14.3168C10.1264 14.2547 10.0728 14.2036 10.0088 14.1688L9.84368 14.079C9.83041 14.072 9.81684 14.0655 9.80295 14.0599C7.93564 13.3086 6.72405 11.4848 6.75533 9.47232C6.75533 6.71108 9.16385 4.46447 12.1246 4.46447C15.0853 4.46447 17.4938 6.71108 17.4938 9.47232C17.5251 11.4848 16.3135 13.3086 14.4462 14.0599C14.4323 14.0656 14.4187 14.072 14.4055 14.0791Z" fill="#5A08FC"/>
<path d="M3.63503 3.68234L3.26562 4.42114L5.74358 5.66012L6.11299 4.92131L3.63503 3.68234Z" fill="#5A08FC"/>
<path d="M20.6643 3.84094L18.0361 4.71753L18.2975 5.5011L20.9256 4.62451L20.6643 3.84094Z" fill="#5A08FC"/>
<path d="M4.27694 9.00757H1.79883V9.83361H4.27694V9.00757Z" fill="#5A08FC"/>
<path d="M22.4498 9.00757H19.9717V9.83361H22.4498V9.00757Z" fill="#5A08FC"/>
<path d="M5.74358 14.0069L3.26562 15.2458L3.63503 15.9847L6.11299 14.7457L5.74358 14.0069Z" fill="#5A08FC"/>
<path d="M18.5037 14.0085L18.1343 14.7473L20.6122 15.9863L20.9816 15.2475L18.5037 14.0085Z" fill="#5A08FC"/>
<path d="M12.537 0.74707H11.7109V2.81216H12.537V0.74707Z" fill="#5A08FC"/>
<path d="M24.1016 20.159V19.333C18.7132 19.333 12.9872 20.6356 12.9503 23.0502H11.2978C11.2609 20.6356 5.53488 19.333 0.146484 19.333V20.159C6.19716 20.159 10.4222 21.6776 10.4697 23.0502H0.146484V23.8762H24.1016V23.0502H13.7783C13.8258 21.6776 18.0509 20.159 24.1016 20.159Z" fill="#5A08FC"/>
<path d="M0.16845 21.3993L0.125 22.2241L7.97374 22.6375L8.01719 21.8127L0.16845 21.3993Z" fill="#5A08FC"/>
<path d="M24.0807 21.3988L16.2319 21.813L16.2755 22.6379L24.1242 22.2237L24.0807 21.3988Z" fill="#5A08FC"/>
</g>
<defs>
<clipPath id="clip0_1043_3565">
<rect width="24" height="24" fill="white" transform="translate(0.125 0.311768)"/>
</clipPath>
</defs>
</svg>
