<svg width="12" height="15" viewBox="0 0 12 15" fill="none" xmlns="http://www.w3.org/2000/svg">
<path d="M11.3922 6.25C11.3922 10.3333 6.13335 13.8333 6.13335 13.8333C6.13335 13.8333 0.874512 10.3333 0.874512 6.25C0.874512 4.85762 1.42857 3.52226 2.41479 2.53769C3.40101 1.55312 4.73862 1 6.13335 1C7.52808 1 8.86569 1.55312 9.85191 2.53769C10.8381 3.52226 11.3922 4.85762 11.3922 6.25Z" stroke="#4E11F7" stroke-linecap="round" stroke-linejoin="round"/>
<path d="M6.13335 8.00001C7.10147 8.00001 7.8863 7.2165 7.8863 6.25C7.8863 5.28351 7.10147 4.5 6.13335 4.5C5.16522 4.5 4.3804 5.28351 4.3804 6.25C4.3804 7.2165 5.16522 8.00001 6.13335 8.00001Z" stroke="#4E11F7" stroke-linecap="round" stroke-linejoin="round"/>
</svg>
