<svg width="157" height="55" viewBox="0 0 157 55" fill="none" xmlns="http://www.w3.org/2000/svg">
<path d="M48.0072 27.3514H54.7028C54.7028 12.2534 42.4494 0 27.3514 0C12.2534 0 0 12.2534 0 27.3514H6.69563C6.69563 31.0493 3.69791 34.047 0 34.047V37.6574C5.68909 37.6574 10.3279 33.0186 10.3279 27.3295H15.2293C15.2293 35.7319 8.40235 42.5588 0 42.5588V46.1692C10.3935 46.1692 18.8397 37.7231 18.8397 27.3295H23.741C23.741 40.4144 13.0849 51.0706 0 51.0706V54.6809C15.0761 54.6809 27.3514 42.4056 27.3514 27.3295C27.3514 42.4056 39.6267 54.6809 54.7028 54.6809V51.0706C41.6179 51.0706 30.9618 40.4144 30.9618 27.3295H35.8632C35.8632 37.7231 44.3093 46.1692 54.7028 46.1692V42.5588C46.3005 42.5588 39.4736 35.7319 39.4736 27.3295H44.3749C44.3749 33.0186 49.0137 37.6574 54.7028 37.6574V34.047C51.0268 34.047 48.0072 31.0274 48.0072 27.3514Z" fill="#5A08FC"/>
<path d="M83.1092 4.16119V0.574191H68.8087V4.16119H73.9635V16.7276H77.9781V4.16119H83.1092Z" fill="black"/>
<path d="M91.1296 0.241621C86.2599 0.241621 82.5778 3.9474 82.5778 8.65089C82.5778 13.3544 86.2599 17.0602 91.1296 17.0602C96.0232 17.0602 99.7052 13.3544 99.7052 8.65089C99.7052 3.9474 96.0232 0.241621 91.1296 0.241621ZM91.1296 13.3306C88.5166 13.3306 86.6399 11.1927 86.6399 8.65089C86.6399 6.1091 88.5166 3.97115 91.1296 3.97115C93.7427 3.97115 95.6193 6.1091 95.6193 8.65089C95.6193 11.1927 93.7427 13.3306 91.1296 13.3306Z" fill="black"/>
<path d="M101.193 0.574191V16.7276H107.702C112.761 16.7276 116.42 13.4019 116.42 8.60338C116.42 3.87614 112.761 0.574191 107.702 0.574191H101.193ZM105.207 13.1168V4.18495H107.702C110.315 4.18495 112.334 6.1091 112.334 8.60338C112.334 11.1689 110.315 13.1168 107.702 13.1168H105.207Z" fill="black"/>
<path d="M127.504 13.9483L128.597 16.7276H132.849L126.008 0.479171H122.183L115.318 16.7276H119.594L120.663 13.9483H127.504ZM126.174 10.5275H121.993L124.083 5.1589L126.174 10.5275Z" fill="black"/>
<path d="M139.162 0.217865C135.361 0.217865 132.748 2.2608 132.748 5.49147C132.748 8.05701 134.245 9.55358 137.428 10.2425L140.088 10.8363C141.466 11.0977 141.799 11.6678 141.799 12.2141C141.799 13.0931 141.015 13.6394 139.518 13.6394C137.618 13.6394 136.383 12.7843 136.121 11.359H132.107C132.487 15.3498 135.765 17.0602 139.399 17.0602C143.438 17.0602 146.098 15.041 146.098 11.8103C146.098 9.03097 144.174 7.84322 141.229 7.20183L138.972 6.67922C137.76 6.41792 137.119 6.03784 137.119 5.1589C137.119 4.11368 138.045 3.54357 139.423 3.54357C141.062 3.54357 141.822 4.37499 142.036 5.58649H146.075C145.671 1.23933 141.775 0.217865 139.162 0.217865Z" fill="black"/>
<path d="M80.7337 32.7884L81.8264 35.5678H86.0786L79.2371 19.3193H75.4126L68.5474 35.5678H72.8233L73.8922 32.7884H80.7337ZM79.4034 29.3677H75.2225L77.313 23.9991L79.4034 29.3677Z" fill="black"/>
<path d="M92.3914 19.058C88.5906 19.058 85.9776 21.101 85.9776 24.3316C85.9776 26.8972 87.4742 28.3937 90.6573 29.0826L93.3179 29.6765C94.6957 29.9378 95.0282 30.5079 95.0282 31.0543C95.0282 31.9332 94.2443 32.4796 92.7478 32.4796C90.8474 32.4796 89.6121 31.6244 89.3508 30.1991H85.3362C85.7163 34.19 88.9945 35.9003 92.629 35.9003C96.6673 35.9003 99.3279 33.8811 99.3279 30.6505C99.3279 27.8711 97.4037 26.6834 94.4581 26.042L92.2014 25.5194C90.9899 25.2581 90.3485 24.878 90.3485 23.9991C90.3485 22.9539 91.275 22.3837 92.6527 22.3837C94.2918 22.3837 95.052 23.2152 95.2658 24.4267H99.3041C98.9003 20.0795 95.0045 19.058 92.3914 19.058Z" fill="black"/>
<path d="M81.6839 50.8684H73.7022V38.2545H69.6876V54.4079H81.6839V50.8684Z" fill="black"/>
<path d="M86.6477 41.7465H94.8432V38.2545H82.6331V54.4079H94.8432V50.9159H86.6477V48.1128H93.798V44.6921H86.6477V41.7465Z" fill="black"/>
<path d="M110.118 41.8415V38.2545H95.8176V41.8415H100.972V54.4079H104.987V41.8415H110.118Z" fill="black"/>
<path d="M117.496 49.7282L120.965 54.4079H125.811L121.654 48.9443C123.578 47.9703 124.742 46.1887 124.742 43.932C124.742 40.44 122.057 38.2545 118.067 38.2545H110.988V54.4079H115.002V49.7282H117.496ZM115.002 46.1174V41.794H117.972C119.516 41.794 120.751 42.6254 120.751 43.932C120.751 45.2622 119.516 46.1174 117.972 46.1174H115.002Z" fill="black"/>
<path d="M138.142 51.6286L139.234 54.4079H143.486L136.645 38.1595H132.82L125.955 54.4079H130.231L131.3 51.6286H138.142ZM136.811 48.2079H132.63L134.721 42.8392L136.811 48.2079Z" fill="black"/>
<path d="M149.398 37.8982C145.597 37.8982 142.984 39.9411 142.984 43.1718C142.984 45.7373 144.48 47.2339 147.663 47.9228L150.324 48.5167C151.702 48.778 152.034 49.3481 152.034 49.8945C152.034 50.7734 151.25 51.3198 149.754 51.3198C147.853 51.3198 146.618 50.4646 146.357 49.0393H142.342C142.722 53.0301 146.001 54.7405 149.635 54.7405C153.673 54.7405 156.334 52.7213 156.334 49.4906C156.334 46.7113 154.41 45.5236 151.464 44.8822L149.207 44.3596C147.996 44.0983 147.355 43.7182 147.355 42.8392C147.355 41.794 148.281 41.2239 149.659 41.2239C151.298 41.2239 152.058 42.0553 152.272 43.2668H156.31C155.906 38.9197 152.011 37.8982 149.398 37.8982Z" fill="black"/>
</svg>
