<?xml version="1.0" encoding="UTF-8" standalone="no"?>
<!DOCTYPE svg PUBLIC "-//W3C//DTD SVG 1.1//EN" "http://www.w3.org/Graphics/SVG/1.1/DTD/svg11.dtd">
<svg width="100%" height="100%" viewBox="0 0 157 67" version="1.1" xmlns="http://www.w3.org/2000/svg" xmlns:xlink="http://www.w3.org/1999/xlink" xml:space="preserve" xmlns:serif="http://www.serif.com/" style="fill-rule:evenodd;clip-rule:evenodd;stroke-linejoin:round;stroke-miterlimit:2;">
    <path d="M48.007,27.351L54.703,27.351C54.703,12.253 42.449,0 27.351,0C12.253,0 0,12.253 0,27.351L6.696,27.351C6.696,31.049 3.698,34.047 0,34.047L0,37.657C5.689,37.657 10.328,33.019 10.328,27.33L15.229,27.33C15.229,35.732 8.402,42.559 0,42.559L0,46.169C10.394,46.169 18.84,37.723 18.84,27.33L23.741,27.33C23.741,40.414 13.085,51.071 0,51.071L0,54.681C15.076,54.681 27.351,42.406 27.351,27.33C27.351,42.406 39.627,54.681 54.703,54.681L54.703,51.071C41.618,51.071 30.962,40.414 30.962,27.33L35.863,27.33C35.863,37.723 44.309,46.169 54.703,46.169L54.703,42.559C46.301,42.559 39.474,35.732 39.474,27.33L44.375,27.33C44.375,33.019 49.014,37.657 54.703,37.657L54.703,34.047C51.027,34.047 48.007,31.027 48.007,27.351Z" style="fill:rgb(90,8,252);fill-rule:nonzero;"/>
    <path d="M83.109,4.161L83.109,0.574L68.809,0.574L68.809,4.161L73.964,4.161L73.964,16.728L77.978,16.728L77.978,4.161L83.109,4.161Z" style="fill-rule:nonzero;"/>
    <path d="M91.13,0.242C86.26,0.242 82.578,3.947 82.578,8.651C82.578,13.354 86.26,17.06 91.13,17.06C96.023,17.06 99.705,13.354 99.705,8.651C99.705,3.947 96.023,0.242 91.13,0.242ZM91.13,13.331C88.517,13.331 86.64,11.193 86.64,8.651C86.64,6.109 88.517,3.971 91.13,3.971C93.743,3.971 95.619,6.109 95.619,8.651C95.619,11.193 93.743,13.331 91.13,13.331Z" style="fill-rule:nonzero;"/>
    <path d="M101.193,0.574L101.193,16.728L107.702,16.728C112.761,16.728 116.42,13.402 116.42,8.603C116.42,3.876 112.761,0.574 107.702,0.574L101.193,0.574ZM105.207,13.117L105.207,4.185L107.702,4.185C110.315,4.185 112.334,6.109 112.334,8.603C112.334,11.169 110.315,13.117 107.702,13.117L105.207,13.117Z" style="fill-rule:nonzero;"/>
    <path d="M127.504,13.948L128.597,16.728L132.849,16.728L126.008,0.479L122.183,0.479L115.318,16.728L119.594,16.728L120.663,13.948L127.504,13.948ZM126.174,10.528L121.993,10.528L124.083,5.159L126.174,10.528Z" style="fill-rule:nonzero;"/>
    <path d="M139.162,0.218C135.361,0.218 132.748,2.261 132.748,5.491C132.748,8.057 134.245,9.554 137.428,10.243L140.088,10.836C141.466,11.098 141.799,11.668 141.799,12.214C141.799,13.093 141.015,13.639 139.518,13.639C137.618,13.639 136.383,12.784 136.121,11.359L132.107,11.359C132.487,15.35 135.765,17.06 139.399,17.06C143.438,17.06 146.098,15.041 146.098,11.81C146.098,9.031 144.174,7.843 141.229,7.202L138.972,6.679C137.76,6.418 137.119,6.038 137.119,5.159C137.119,4.114 138.045,3.544 139.423,3.544C141.062,3.544 141.822,4.375 142.036,5.586L146.075,5.586C145.671,1.239 141.775,0.218 139.162,0.218Z" style="fill-rule:nonzero;"/>
    <path d="M80.734,32.788L81.826,35.568L86.079,35.568L79.237,19.319L75.413,19.319L68.547,35.568L72.823,35.568L73.892,32.788L80.734,32.788ZM79.403,29.368L75.223,29.368L77.313,23.999L79.403,29.368Z" style="fill-rule:nonzero;"/>
    <path d="M92.391,19.058C88.591,19.058 85.978,21.101 85.978,24.332C85.978,26.897 87.474,28.394 90.657,29.083L93.318,29.677C94.696,29.938 95.028,30.508 95.028,31.054C95.028,31.933 94.244,32.48 92.748,32.48C90.847,32.48 89.612,31.624 89.351,30.199L85.336,30.199C85.716,34.19 88.995,35.9 92.629,35.9C96.667,35.9 99.328,33.881 99.328,30.651C99.328,27.871 97.404,26.683 94.458,26.042L92.201,25.519C90.99,25.258 90.349,24.878 90.349,23.999C90.349,22.954 91.275,22.384 92.653,22.384C94.292,22.384 95.052,23.215 95.266,24.427L99.304,24.427C98.9,20.08 95.004,19.058 92.391,19.058Z" style="fill-rule:nonzero;"/>
    <path d="M81.684,50.868L73.702,50.868L73.702,38.255L69.688,38.255L69.688,54.408L81.684,54.408L81.684,50.868Z" style="fill-rule:nonzero;"/>
    <path d="M86.648,41.747L94.843,41.747L94.843,38.255L82.633,38.255L82.633,54.408L94.843,54.408L94.843,50.916L86.648,50.916L86.648,48.113L93.798,48.113L93.798,44.692L86.648,44.692L86.648,41.747Z" style="fill-rule:nonzero;"/>
    <path d="M110.118,41.842L110.118,38.255L95.818,38.255L95.818,41.842L100.972,41.842L100.972,54.408L104.987,54.408L104.987,41.842L110.118,41.842Z" style="fill-rule:nonzero;"/>
    <path d="M117.496,49.728L120.965,54.408L125.811,54.408L121.654,48.944C123.578,47.97 124.742,46.189 124.742,43.932C124.742,40.44 122.057,38.255 118.067,38.255L110.988,38.255L110.988,54.408L115.002,54.408L115.002,49.728L117.496,49.728ZM115.002,46.117L115.002,41.794L117.972,41.794C119.516,41.794 120.751,42.625 120.751,43.932C120.751,45.262 119.516,46.117 117.972,46.117L115.002,46.117Z" style="fill-rule:nonzero;"/>
    <path d="M138.142,51.629L139.234,54.408L143.486,54.408L136.645,38.16L132.82,38.16L125.955,54.408L130.231,54.408L131.3,51.629L138.142,51.629ZM136.811,48.208L132.63,48.208L134.721,42.839L136.811,48.208Z" style="fill-rule:nonzero;"/>
    <path d="M149.398,37.898C145.597,37.898 142.984,39.941 142.984,43.172C142.984,45.737 144.48,47.234 147.663,47.923L150.324,48.517C151.702,48.778 152.034,49.348 152.034,49.895C152.034,50.773 151.25,51.32 149.754,51.32C147.853,51.32 146.618,50.465 146.357,49.039L142.342,49.039C142.722,53.03 146.001,54.74 149.635,54.74C153.673,54.74 156.334,52.721 156.334,49.491C156.334,46.711 154.41,45.524 151.464,44.882L149.207,44.36C147.996,44.098 147.355,43.718 147.355,42.839C147.355,41.794 148.281,41.224 149.659,41.224C151.298,41.224 152.058,42.055 152.272,43.267L156.31,43.267C155.906,38.92 152.011,37.898 149.398,37.898Z" style="fill-rule:nonzero;"/>
    <path d="M75.463,65.457L72.062,65.457L72.062,60.432L70.351,60.432L70.351,66.868L75.463,66.868L75.463,65.457Z" style="fill:rgb(151,151,151);fill-rule:nonzero;"/>
    <path d="M82.547,63.253L78.862,63.253L78.862,64.511L80.836,64.53C80.502,65.145 79.895,65.514 79.095,65.514C77.87,65.514 77.091,64.691 77.091,63.678C77.091,62.543 77.9,61.767 79.075,61.767C79.692,61.767 80.381,61.975 80.684,62.723L82.476,62.723C82.182,61.19 80.725,60.3 79.044,60.3C76.939,60.3 75.36,61.71 75.36,63.716C75.36,65.562 76.868,67 79.024,67C79.986,67 80.704,66.659 81.201,66.092L81.271,66.868L82.547,66.868L82.547,63.253Z" style="fill:rgb(151,151,151);fill-rule:nonzero;"/>
    <path d="M88.298,63.555C88.905,63.357 89.26,62.742 89.26,62.145C89.26,61.095 88.379,60.432 86.891,60.432L83.49,60.432L83.49,66.868L87.093,66.868C88.642,66.868 89.563,66.148 89.563,65.079C89.563,64.388 89.138,63.726 88.298,63.555ZM85.2,61.738L86.628,61.738C87.286,61.738 87.62,61.956 87.62,62.363C87.62,62.779 87.266,63.054 86.628,63.054L85.2,63.054L85.2,61.738ZM85.2,65.543L85.2,64.275L86.901,64.275C87.529,64.275 87.883,64.473 87.883,64.871C87.883,65.249 87.569,65.543 86.871,65.543L85.2,65.543Z" style="fill:rgb(151,151,151);fill-rule:nonzero;"/>
    <path d="M95.678,61.861L95.678,60.432L89.584,60.432L89.584,61.861L91.781,61.861L91.781,66.868L93.492,66.868L93.492,61.861L95.678,61.861Z" style="fill:rgb(151,151,151);fill-rule:nonzero;"/>
    <rect x="96.049" y="60.432" width="1.711" height="6.435" style="fill:rgb(151,151,151);fill-rule:nonzero;"/>
    <rect x="107" y="60.432" width="1.711" height="6.435" style="fill:rgb(151,151,151);fill-rule:nonzero;"/>
    <path d="M115.858,60.432L114.147,60.432L114.147,64.057L110.827,60.432L109.521,60.432L109.521,66.868L111.232,66.868L111.232,63.338L114.532,66.868L115.858,66.868L115.858,60.432Z" style="fill:rgb(151,151,151);fill-rule:nonzero;"/>
    <path d="M124.297,61.861L124.297,60.432L118.203,60.432L118.203,61.861L120.399,61.861L120.399,66.868L122.11,66.868L122.11,61.861L124.297,61.861Z" style="fill:rgb(151,151,151);fill-rule:nonzero;"/>
    <path d="M126.378,61.824L129.87,61.824L129.87,60.432L124.667,60.432L124.667,66.868L129.87,66.868L129.87,65.476L126.378,65.476L126.378,64.36L129.425,64.36L129.425,62.997L126.378,62.997L126.378,61.824Z" style="fill:rgb(151,151,151);fill-rule:nonzero;"/>
    <path d="M133.715,65.505C132.591,65.505 131.812,64.719 131.812,63.65C131.812,62.581 132.591,61.795 133.715,61.795C134.626,61.795 135.234,62.297 135.426,63.101L137.177,63.101C136.964,61.436 135.608,60.3 133.725,60.3C131.65,60.3 130.081,61.71 130.081,63.65C130.081,65.59 131.65,67 133.725,67C135.608,67 136.964,65.864 137.177,64.199L135.426,64.199C135.234,65.003 134.626,65.505 133.715,65.505Z" style="fill:rgb(151,151,151);fill-rule:nonzero;"/>
    <path d="M144.051,60.432L142.34,60.432L142.34,63.016L139.536,63.016L139.536,60.432L137.826,60.432L137.826,66.868L139.536,66.868L139.536,64.454L142.34,64.454L142.34,66.868L144.051,66.868L144.051,60.432Z" style="fill:rgb(151,151,151);fill-rule:nonzero;"/>
    <rect x="98.743" y="63.118" width="4.774" height="1.25" style="fill:rgb(151,151,151);fill-rule:nonzero;"/>
    <rect x="100.461" y="61.511" width="1.337" height="4.464" style="fill:rgb(151,151,151);fill-rule:nonzero;"/>
</svg>
