<svg width="221" height="78" viewBox="0 0 221 78" fill="none" xmlns="http://www.w3.org/2000/svg">
<path d="M68.3381 38.9726H77.754C77.754 17.726 60.5224 0.482422 39.2906 0.482422C18.0588 0.482422 0.827148 17.726 0.827148 38.9726H10.243C10.243 44.1764 6.0274 48.3949 0.827148 48.3949V53.4756C8.82754 53.4756 15.3509 46.9477 15.3509 38.9418H22.2436C22.2436 50.7659 12.6431 60.3731 0.827148 60.3731V65.4538C15.4432 65.4538 27.3207 53.568 27.3207 38.9418H34.2134C34.2134 57.3554 19.228 72.3512 0.827148 72.3512V77.4319C22.0282 77.4319 39.2906 60.1575 39.2906 38.9418C39.2906 60.1575 56.5529 77.4319 77.754 77.4319V72.3512C59.3531 72.3512 44.3677 57.3554 44.3677 38.9418H51.2604C51.2604 53.568 63.1379 65.4538 77.754 65.4538V60.3731C65.938 60.3731 56.3375 50.7659 56.3375 38.9418H63.2302C63.2302 46.9477 69.7536 53.4756 77.754 53.4756V48.3949C72.5845 48.3949 68.3381 44.1456 68.3381 38.9726Z" fill="white"/>
<path d="M117.7 6.33829V1.2905H97.5901V6.33829H104.839V24.0223H110.485V6.33829H117.7Z" fill="white"/>
<path d="M128.979 0.822493C122.131 0.822493 116.953 6.03743 116.953 12.6564C116.953 19.2754 122.131 24.4903 128.979 24.4903C135.861 24.4903 141.039 19.2754 141.039 12.6564C141.039 6.03743 135.861 0.822493 128.979 0.822493ZM128.979 19.2419C125.305 19.2419 122.666 16.2333 122.666 12.6564C122.666 9.07948 125.305 6.07086 128.979 6.07086C132.654 6.07086 135.293 9.07948 135.293 12.6564C135.293 16.2333 132.654 19.2419 128.979 19.2419Z" fill="white"/>
<path d="M143.131 1.2905V24.0223H152.284C159.399 24.0223 164.544 19.3422 164.544 12.5895C164.544 5.93714 159.399 1.2905 152.284 1.2905H143.131ZM148.776 18.9411V6.37172H152.284C155.959 6.37172 158.798 9.07948 158.798 12.5895C158.798 16.1999 155.959 18.9411 152.284 18.9411H148.776Z" fill="white"/>
<path d="M180.132 20.1111L181.668 24.0223H187.648L178.027 1.15678H172.649L162.994 24.0223H169.007L170.511 20.1111H180.132ZM178.261 15.2973H172.381L175.321 7.74232L178.261 15.2973Z" fill="white"/>
<path d="M196.526 0.789062C191.181 0.789062 187.506 3.66397 187.506 8.21032C187.506 11.8207 189.611 13.9267 194.087 14.8961L197.828 15.7319C199.766 16.0996 200.234 16.9019 200.234 17.6708C200.234 18.9076 199.131 19.6765 197.027 19.6765C194.354 19.6765 192.617 18.4731 192.25 16.4673H186.604C187.139 22.0834 191.749 24.4903 196.86 24.4903C202.539 24.4903 206.28 21.6488 206.28 17.1025C206.28 13.1913 203.574 11.5198 199.432 10.6172L196.258 9.88178C194.555 9.51406 193.653 8.97919 193.653 7.74232C193.653 6.27144 194.955 5.46914 196.893 5.46914C199.198 5.46914 200.267 6.63915 200.568 8.34404H206.247C205.679 2.22652 200.2 0.789062 196.526 0.789062Z" fill="white"/>
<path d="M114.36 46.6238L115.897 50.535H121.876L112.255 27.6695H106.877L97.2227 50.535H103.236L104.739 46.6238H114.36ZM112.489 41.81H106.61L109.549 34.255L112.489 41.81Z" fill="white"/>
<path d="M130.754 27.3018C125.409 27.3018 121.734 30.1767 121.734 34.7231C121.734 38.3334 123.839 40.4394 128.315 41.4089L132.057 42.2446C133.994 42.6123 134.462 43.4146 134.462 44.1835C134.462 45.4204 133.359 46.1892 131.255 46.1892C128.582 46.1892 126.845 44.9858 126.478 42.98H120.832C121.367 48.5961 125.977 51.003 131.088 51.003C136.767 51.003 140.508 48.1615 140.508 43.6152C140.508 39.704 137.802 38.0325 133.66 37.1299L130.487 36.3945C128.783 36.0268 127.881 35.4919 127.881 34.255C127.881 32.7842 129.184 31.9819 131.121 31.9819C133.426 31.9819 134.495 33.1519 134.796 34.8568H140.475C139.907 28.7392 134.428 27.3018 130.754 27.3018Z" fill="white"/>
<path d="M115.696 72.0668H104.472V54.316H98.8261V77.0478H115.696V72.0668Z" fill="white"/>
<path d="M122.677 59.23H134.202V54.316H117.031V77.0478H134.202V72.1337H122.677V68.189H132.732V63.3752H122.677V59.23Z" fill="white"/>
<path d="M155.682 59.3638V54.316H135.572V59.3638H142.821V77.0478H148.467V59.3638H155.682Z" fill="white"/>
<path d="M166.058 70.4622L170.935 77.0478H177.75L171.904 69.3591C174.61 67.9885 176.247 65.4813 176.247 62.3055C176.247 57.3914 172.472 54.316 166.86 54.316H156.905V77.0478H162.551V70.4622H166.058ZM162.551 65.381V59.2969H166.726C168.898 59.2969 170.635 60.4669 170.635 62.3055C170.635 64.1775 168.898 65.381 166.726 65.381H162.551Z" fill="white"/>
<path d="M195.091 73.1365L196.627 77.0478H202.607L192.986 54.1822H187.608L177.954 77.0478H183.967L185.47 73.1365H195.091ZM193.22 68.3228H187.341L190.28 60.7678L193.22 68.3228Z" fill="white"/>
<path d="M210.92 53.8145C205.575 53.8145 201.9 56.6894 201.9 61.2358C201.9 64.8461 204.005 66.9522 208.481 67.9216L212.222 68.7573C214.16 69.1251 214.628 69.9273 214.628 70.6962C214.628 71.9331 213.525 72.702 211.421 72.702C208.748 72.702 207.011 71.4985 206.644 69.4928H200.998C201.533 75.1089 206.143 77.5158 211.254 77.5158C216.933 77.5158 220.674 74.6743 220.674 70.1279C220.674 66.2167 217.968 64.5453 213.826 63.6427L210.652 62.9072C208.949 62.5395 208.047 62.0047 208.047 60.7678C208.047 59.2969 209.35 58.4946 211.287 58.4946C213.592 58.4946 214.661 59.6646 214.962 61.3695H220.641C220.073 55.252 214.594 53.8145 210.92 53.8145Z" fill="white"/>
</svg>
