<svg width="25" height="25" viewBox="0 0 25 25" fill="none" xmlns="http://www.w3.org/2000/svg">
<g clip-path="url(#clip0_1043_3546)">
<path d="M12.125 10.0544C12.119 10.0544 12.112 10.0544 12.106 10.0544C11.956 10.0484 11.815 9.97444 11.725 9.85444L10.375 8.05444H7.625C6.798 8.05444 6.125 7.38144 6.125 6.55444V1.55444C6.125 0.727443 6.798 0.0544434 7.625 0.0544434H16.625C17.452 0.0544434 18.125 0.727443 18.125 1.55444V6.55444C18.125 7.38144 17.452 8.05444 16.625 8.05444H14.102L12.501 9.88344C12.406 9.99244 12.269 10.0544 12.125 10.0544ZM7.625 1.05444C7.349 1.05444 7.125 1.27844 7.125 1.55444V6.55444C7.125 6.83044 7.349 7.05444 7.625 7.05444H10.625C10.782 7.05444 10.931 7.12844 11.025 7.25444L12.155 8.76044L13.499 7.22444C13.594 7.11644 13.731 7.05444 13.875 7.05444H16.625C16.901 7.05444 17.125 6.83044 17.125 6.55444V1.55444C17.125 1.27844 16.901 1.05444 16.625 1.05444H7.625Z" fill="#5A08FC"/>
<path d="M20.125 11.0544C20.119 11.0544 20.112 11.0544 20.105 11.0544C19.954 11.0484 19.814 10.9744 19.724 10.8534L18.934 9.79344C18.769 9.57144 18.815 9.25844 19.036 9.09344C19.257 8.92744 19.57 8.97344 19.736 9.19544L20.156 9.75944L21.498 8.22544C21.594 8.11644 21.731 8.05444 21.875 8.05444H22.625C22.901 8.05444 23.125 7.83044 23.125 7.55444V2.55444C23.125 2.27844 22.901 2.05444 22.625 2.05444H20.625C20.349 2.05444 20.125 1.83044 20.125 1.55444C20.125 1.27844 20.349 1.05444 20.625 1.05444H22.625C23.452 1.05444 24.125 1.72744 24.125 2.55444V7.55444C24.125 8.38144 23.452 9.05444 22.625 9.05444H22.102L20.501 10.8834C20.406 10.9924 20.269 11.0544 20.125 11.0544Z" fill="#5A08FC"/>
<path d="M4.125 11.0544C3.981 11.0544 3.844 10.9924 3.749 10.8834L2.148 9.05444H1.625C0.798 9.05444 0.125 8.38144 0.125 7.55444V2.55444C0.125 1.72744 0.798 1.05444 1.625 1.05444H3.625C3.901 1.05444 4.125 1.27844 4.125 1.55444C4.125 1.83044 3.901 2.05444 3.625 2.05444H1.625C1.349 2.05444 1.125 2.27844 1.125 2.55444V7.55444C1.125 7.83044 1.349 8.05444 1.625 8.05444H2.375C2.519 8.05444 2.656 8.11644 2.751 8.22544L4.093 9.75944L4.513 9.19544C4.678 8.97444 4.992 8.92844 5.213 9.09344C5.434 9.25844 5.48 9.57144 5.315 9.79344L4.525 10.8534C4.436 10.9744 4.295 11.0484 4.145 11.0544C4.138 11.0544 4.131 11.0544 4.125 11.0544Z" fill="#5A08FC"/>
<path d="M20.125 17.0544C19.022 17.0544 18.125 16.1574 18.125 15.0544C18.125 13.9514 19.022 13.0544 20.125 13.0544C21.228 13.0544 22.125 13.9514 22.125 15.0544C22.125 16.1574 21.228 17.0544 20.125 17.0544ZM20.125 14.0544C19.574 14.0544 19.125 14.5034 19.125 15.0544C19.125 15.6054 19.574 16.0544 20.125 16.0544C20.676 16.0544 21.125 15.6054 21.125 15.0544C21.125 14.5034 20.676 14.0544 20.125 14.0544Z" fill="#5A08FC"/>
<path d="M23.625 22.0544C23.349 22.0544 23.125 21.8304 23.125 21.5544V20.5544C23.125 19.7274 22.452 19.0544 21.625 19.0544H18.625C18.349 19.0544 18.125 18.8304 18.125 18.5544C18.125 18.2784 18.349 18.0544 18.625 18.0544H21.625C23.003 18.0544 24.125 19.1764 24.125 20.5544V21.5544C24.125 21.8304 23.901 22.0544 23.625 22.0544Z" fill="#5A08FC"/>
<path d="M4.125 17.0544C3.022 17.0544 2.125 16.1574 2.125 15.0544C2.125 13.9514 3.022 13.0544 4.125 13.0544C5.228 13.0544 6.125 13.9514 6.125 15.0544C6.125 16.1574 5.228 17.0544 4.125 17.0544ZM4.125 14.0544C3.574 14.0544 3.125 14.5034 3.125 15.0544C3.125 15.6054 3.574 16.0544 4.125 16.0544C4.676 16.0544 5.125 15.6054 5.125 15.0544C5.125 14.5034 4.676 14.0544 4.125 14.0544Z" fill="#5A08FC"/>
<path d="M0.625 22.0544C0.349 22.0544 0.125 21.8304 0.125 21.5544V20.5544C0.125 19.1764 1.247 18.0544 2.625 18.0544H5.625C5.901 18.0544 6.125 18.2784 6.125 18.5544C6.125 18.8304 5.901 19.0544 5.625 19.0544H2.625C1.798 19.0544 1.125 19.7274 1.125 20.5544V21.5544C1.125 21.8304 0.901 22.0544 0.625 22.0544Z" fill="#5A08FC"/>
<path d="M12.125 17.5544C10.471 17.5544 9.125 16.2084 9.125 14.5544C9.125 12.9004 10.471 11.5544 12.125 11.5544C13.779 11.5544 15.125 12.9004 15.125 14.5544C15.125 16.2084 13.779 17.5544 12.125 17.5544ZM12.125 12.5544C11.022 12.5544 10.125 13.4514 10.125 14.5544C10.125 15.6574 11.022 16.5544 12.125 16.5544C13.228 16.5544 14.125 15.6574 14.125 14.5544C14.125 13.4514 13.228 12.5544 12.125 12.5544Z" fill="#5A08FC"/>
<path d="M17.125 24.0544C16.849 24.0544 16.625 23.8304 16.625 23.5544V21.5544C16.625 20.7274 15.952 20.0544 15.125 20.0544H9.125C8.298 20.0544 7.625 20.7274 7.625 21.5544V23.5544C7.625 23.8304 7.401 24.0544 7.125 24.0544C6.849 24.0544 6.625 23.8304 6.625 23.5544V21.5544C6.625 20.1764 7.747 19.0544 9.125 19.0544H15.125C16.503 19.0544 17.625 20.1764 17.625 21.5544V23.5544C17.625 23.8304 17.401 24.0544 17.125 24.0544Z" fill="#5A08FC"/>
</g>
<defs>
<clipPath id="clip0_1043_3546">
<rect width="24" height="24" fill="white" transform="translate(0.125 0.0544434)"/>
</clipPath>
</defs>
</svg>
