<svg width="61" height="61" viewBox="0 0 61 61" fill="none" xmlns="http://www.w3.org/2000/svg">
<path d="M-8.55205e-08 58.0435L8.55433e-08 60L7.89222 60C7.90091 31.2957 31.286 7.92212 60 7.92212L60 -2.62268e-06C27.5705 -1.20515e-06 1.0455 25.8711 -8.55205e-08 58.0435Z" fill="#5A08FC"/>
<path fill-rule="evenodd" clip-rule="evenodd" d="M60 37.354C47.5187 37.354 37.3406 47.524 37.3319 60L60 60M60 37.354L60 45.2761C51.8837 45.2761 45.3042 51.8538 45.3042 59.968L60 59.968" fill="#5A08FC"/>
<path d="M60.35 19C37.5432 19 19.0087 37.5243 19 60.323L26.9242 60.323C26.9329 41.8934 41.9135 26.9221 60.35 26.9221L60.35 19Z" fill="#F1D703"/>
</svg>
