<svg width="25" height="25" viewBox="0 0 25 25" fill="none" xmlns="http://www.w3.org/2000/svg">
<g clip-path="url(#clip0_1043_3599)">
<path d="M15.7005 15.8293C14.785 15.8805 13.866 15.8094 12.9694 15.618L11.9857 15.4081C11.9615 15.403 11.9369 15.4004 11.9121 15.4004L8.73682 15.4003C8.66754 15.4003 8.59976 15.4207 8.542 15.459L6.45336 16.8436C5.9527 17.1755 5.28823 17.0519 4.94051 16.562C4.62447 16.1168 4.67767 15.5158 5.06709 15.1332L7.18321 13.0532L10.1516 11.3746C10.1725 11.3628 10.1922 11.3489 10.2103 11.333L10.4515 11.1219C10.4696 11.106 10.486 11.0883 10.5005 11.0692L13.0196 7.73682L14.0795 8.32303C14.1335 8.35297 14.1921 8.36712 14.2498 8.36712C14.3739 8.36712 14.4942 8.3015 14.5585 8.18517C14.6528 8.01484 14.5911 7.80032 14.4207 7.70613L13.4492 7.16871L14.7678 5.42432C14.9395 5.19725 15.0125 4.91689 14.9733 4.63497C14.9341 4.353 14.7875 4.10323 14.5604 3.93154L13.8785 3.41597C13.6514 3.24432 13.3713 3.17137 13.0891 3.21052C12.8071 3.24972 12.5573 3.39637 12.3857 3.62344L10.8094 5.70859L10.4909 5.53242C10.3651 5.46286 10.2227 5.42606 10.079 5.42606H7.57173C7.17654 5.42606 6.79277 5.56664 6.49115 5.82196L4.42809 7.56785C4.27947 7.69363 4.26095 7.91599 4.38668 8.06461C4.45644 8.14701 4.55589 8.1894 4.65596 8.1894C4.73638 8.1894 4.81732 8.162 4.8835 8.10598L6.94656 6.36008C7.12108 6.2124 7.34311 6.13109 7.57173 6.13109H10.079C10.1036 6.13109 10.1281 6.13739 10.1497 6.14937L10.3799 6.2767L8.11526 9.27243L5.01618 11.0034C4.91588 11.0594 4.84918 11.1608 4.83743 11.275L4.48149 14.7273C4.18382 15.0652 4.03036 15.4883 4.02905 15.9151L3.99506 15.9983C3.87262 16.2978 3.58445 16.4913 3.26089 16.4913C2.82354 16.4913 2.46773 16.1355 2.46773 15.6981V11.1126C2.46773 10.5011 2.73546 9.92373 3.20233 9.52868L3.73392 9.07887C3.88254 8.95309 3.90111 8.73068 3.77533 8.58206C3.6496 8.43353 3.42723 8.41497 3.27852 8.54065L2.74692 8.99051C2.12142 9.51984 1.76275 10.2934 1.76275 11.1126V15.6981C1.76275 16.1844 1.99578 16.6172 2.35587 16.891L0.760194 19.0018C0.689503 19.0953 0.638976 19.2052 0.613971 19.3198L0.136524 21.5087C0.0959614 21.6947 0.164161 21.883 0.314568 21.9998C0.402885 22.0685 0.508028 22.1035 0.6143 22.1035C0.624923 22.1035 13.0221 22.1032 13.0221 22.1032C13.2169 22.1032 13.3747 21.9454 13.3747 21.7507C13.3747 21.5559 13.2169 21.3982 13.0221 21.3982H2.1366L2.86128 21.0349C2.97258 20.979 3.07114 20.897 3.14621 20.7977L5.4878 17.7002C5.60357 17.7233 5.72145 17.7357 5.83999 17.7357C6.18428 17.7357 6.53285 17.6369 6.84301 17.4312L8.84309 16.1053L11.875 16.1054L12.8222 16.3076C13.7801 16.512 14.7617 16.5879 15.74 16.5333C15.9343 16.5224 16.0831 16.356 16.0722 16.1616C16.0614 15.9672 15.8948 15.8188 15.7005 15.8293ZM9.96 10.6152L9.77312 10.7787L6.79573 12.4624C6.76889 12.4775 6.74412 12.4962 6.72212 12.5178L6.03556 13.1926L10.5652 7.20081L11.8297 8.14188L9.96 10.6152ZM11.6648 5.74619L12.9293 6.68727L12.2548 7.57951L10.9903 6.63843L11.6648 5.74619ZM12.9481 4.04866C13.0062 3.97177 13.0908 3.92218 13.1862 3.90888C13.203 3.90653 13.2199 3.9054 13.2366 3.9054C13.3145 3.9054 13.39 3.93055 13.4533 3.9784L14.1352 4.49396C14.2939 4.61391 14.3254 4.84051 14.2055 4.99919L13.3545 6.12489L12.09 5.18381L12.9481 4.04866ZM7.05866 10.6702L5.37956 12.8913L5.51995 11.5297L7.05866 10.6702ZM1.21959 19.8516L2.08499 20.6354L0.921411 21.2187L1.21959 19.8516ZM2.68996 20.2321L1.51707 19.1698L3.02325 17.1774C3.10071 17.1898 3.18 17.1964 3.26089 17.1964C3.64142 17.1964 3.9953 17.0539 4.26434 16.8102C4.29512 16.8646 4.32859 16.9181 4.36553 16.97C4.49319 17.1499 4.64717 17.2991 4.81807 17.417L2.68996 20.2321Z" fill="#5A08FC"/>
<path d="M23.7724 16.2811H20.5388C20.3631 16.2811 20.2146 16.0766 20.2146 15.8345V9.37406C20.2146 9.132 20.3631 8.92744 20.5388 8.92744H23.7724C23.9671 8.92744 24.1249 8.76966 24.1249 8.57493C24.1249 8.3802 23.9671 8.22241 23.7724 8.22241H20.5388C20.0819 8.22241 19.6939 8.5573 19.5598 9.01914H16.7947L15.7424 8.43712C15.5721 8.34297 15.3576 8.40473 15.2633 8.57502C15.1691 8.7454 15.2308 8.95987 15.4012 9.05411L16.5331 9.68013C16.5854 9.70899 16.6441 9.72417 16.7038 9.72417H19.5096V15.226H18.7192C18.6817 15.226 18.6445 15.232 18.6089 15.2437L18.356 15.327C17.9627 15.4566 17.5555 15.5637 17.146 15.6454C16.9551 15.6835 16.8312 15.8692 16.8692 16.0601C16.9027 16.2277 17.05 16.3437 17.2146 16.3437C17.2375 16.3437 17.2607 16.3415 17.284 16.3368C17.7214 16.2495 18.1563 16.135 18.5766 15.9966L18.7758 15.9309H19.5135C19.5576 16.5209 20.0004 16.986 20.5388 16.986H23.7725C23.9672 16.986 24.125 16.8283 24.125 16.6335C24.125 16.4388 23.9671 16.2811 23.7724 16.2811Z" fill="#5A08FC"/>
</g>
<defs>
<clipPath id="clip0_1043_3599">
<rect width="24" height="24" fill="white" transform="translate(0.125 0.651855)"/>
</clipPath>
</defs>
</svg>
