<svg width="221" height="95" viewBox="0 0 221 95" fill="none" xmlns="http://www.w3.org/2000/svg">
<path d="M68.3381 38.4901H77.754C77.754 17.2436 60.5224 0 39.2906 0C18.0588 0 0.827148 17.2436 0.827148 38.4901H10.243C10.243 43.694 6.0274 47.9125 0.827148 47.9125V52.9932C8.82754 52.9932 15.3509 46.4653 15.3509 38.4593H22.2436C22.2436 50.2835 12.6431 59.8907 0.827148 59.8907V64.9714C15.4432 64.9714 27.3207 53.0856 27.3207 38.4593H34.2134C34.2134 56.873 19.228 71.8688 0.827148 71.8688V76.9495C22.0282 76.9495 39.2906 59.6751 39.2906 38.4593C39.2906 59.6751 56.5529 76.9495 77.754 76.9495V71.8688C59.3531 71.8688 44.3677 56.873 44.3677 38.4593H51.2604C51.2604 53.0856 63.1379 64.9714 77.754 64.9714V59.8907C65.938 59.8907 56.3375 50.2835 56.3375 38.4593H63.2302C63.2302 46.4653 69.7536 52.9932 77.754 52.9932V47.9125C72.5845 47.9125 68.3381 43.6632 68.3381 38.4901Z" fill="white"/>
<path d="M117.7 5.85587V0.808079H97.5901V5.85587H104.839V23.5399H110.485V5.85587H117.7Z" fill="white"/>
<path d="M128.979 0.340071C122.131 0.340071 116.953 5.55501 116.953 12.174C116.953 18.7929 122.131 24.0079 128.979 24.0079C135.861 24.0079 141.039 18.7929 141.039 12.174C141.039 5.55501 135.861 0.340071 128.979 0.340071ZM128.979 18.7595C125.305 18.7595 122.666 15.7509 122.666 12.174C122.666 8.59706 125.305 5.58844 128.979 5.58844C132.654 5.58844 135.293 8.59706 135.293 12.174C135.293 15.7509 132.654 18.7595 128.979 18.7595Z" fill="white"/>
<path d="M143.131 0.808079V23.5399H152.284C159.399 23.5399 164.544 18.8598 164.544 12.1071C164.544 5.45472 159.399 0.808079 152.284 0.808079H143.131ZM148.776 18.4586V5.8893H152.284C155.959 5.8893 158.798 8.59706 158.798 12.1071C158.798 15.7175 155.959 18.4586 152.284 18.4586H148.776Z" fill="white"/>
<path d="M180.132 19.6287L181.668 23.5399H187.648L178.027 0.674362H172.649L162.994 23.5399H169.007L170.511 19.6287H180.132ZM178.261 14.8149H172.381L175.321 7.25989L178.261 14.8149Z" fill="white"/>
<path d="M196.526 0.306641C191.181 0.306641 187.506 3.18154 187.506 7.7279C187.506 11.3382 189.611 13.4443 194.087 14.4137L197.828 15.2494C199.766 15.6172 200.234 16.4195 200.234 17.1883C200.234 18.4252 199.131 19.1941 197.027 19.1941C194.354 19.1941 192.617 17.9906 192.25 15.9849H186.604C187.139 21.601 191.749 24.0079 196.86 24.0079C202.539 24.0079 206.28 21.1664 206.28 16.62C206.28 12.7088 203.574 11.0374 199.432 10.1348L196.258 9.39936C194.555 9.03164 193.653 8.49677 193.653 7.25989C193.653 5.78901 194.955 4.98672 196.893 4.98672C199.198 4.98672 200.267 6.15673 200.568 7.86162H206.247C205.679 1.74409 200.2 0.306641 196.526 0.306641Z" fill="white"/>
<path d="M114.36 46.1414L115.897 50.0526H121.876L112.255 27.1871H106.877L97.2227 50.0526H103.236L104.739 46.1414H114.36ZM112.489 41.3276H106.61L109.549 33.7726L112.489 41.3276Z" fill="white"/>
<path d="M130.754 26.8194C125.409 26.8194 121.734 29.6943 121.734 34.2406C121.734 37.851 123.839 39.957 128.315 40.9265L132.057 41.7622C133.994 42.1299 134.462 42.9322 134.462 43.7011C134.462 44.9379 133.359 45.7068 131.255 45.7068C128.582 45.7068 126.845 44.5034 126.478 42.4976H120.832C121.367 48.1137 125.977 50.5206 131.088 50.5206C136.767 50.5206 140.508 47.6791 140.508 43.1328C140.508 39.2216 137.802 37.5501 133.66 36.6475L130.487 35.9121C128.783 35.5444 127.881 35.0095 127.881 33.7726C127.881 32.3017 129.184 31.4994 131.121 31.4994C133.426 31.4994 134.495 32.6695 134.796 34.3743H140.475C139.907 28.2568 134.428 26.8194 130.754 26.8194Z" fill="white"/>
<path d="M115.696 71.5844H104.472V53.8335H98.8261V76.5653H115.696V71.5844Z" fill="white"/>
<path d="M122.677 58.7476H134.202V53.8335H117.031V76.5653H134.202V71.6513H122.677V67.7066H132.732V62.8928H122.677V58.7476Z" fill="white"/>
<path d="M155.682 58.8813V53.8335H135.572V58.8813H142.821V76.5653H148.467V58.8813H155.682Z" fill="white"/>
<path d="M166.058 69.9798L170.935 76.5653H177.75L171.904 68.8766C174.61 67.506 176.247 64.9989 176.247 61.8231C176.247 56.909 172.472 53.8335 166.86 53.8335H156.905V76.5653H162.551V69.9798H166.058ZM162.551 64.8986V58.8145H166.726C168.898 58.8145 170.635 59.9845 170.635 61.8231C170.635 63.6951 168.898 64.8986 166.726 64.8986H162.551Z" fill="white"/>
<path d="M195.091 72.6541L196.627 76.5653H202.607L192.986 53.6998H187.608L177.954 76.5653H183.967L185.47 72.6541H195.091ZM193.22 67.8403H187.341L190.28 60.2854L193.22 67.8403Z" fill="white"/>
<path d="M210.92 53.3321C205.575 53.3321 201.9 56.207 201.9 60.7534C201.9 64.3637 204.005 66.4697 208.481 67.4392L212.222 68.2749C214.16 68.6426 214.628 69.4449 214.628 70.2138C214.628 71.4507 213.525 72.2195 211.421 72.2195C208.748 72.2195 207.011 71.0161 206.644 69.0104H200.998C201.533 74.6264 206.143 77.0333 211.254 77.0333C216.933 77.0333 220.674 74.1919 220.674 69.6455C220.674 65.7343 217.968 64.0628 213.826 63.1603L210.652 62.4248C208.949 62.0571 208.047 61.5222 208.047 60.2854C208.047 58.8145 209.35 58.0122 211.287 58.0122C213.592 58.0122 214.661 59.1822 214.962 60.8871H220.641C220.073 54.7696 214.594 53.3321 210.92 53.3321Z" fill="white"/>
<path d="M106.948 92.1143H102.165V85.0429H99.7593V94.0985H106.948V92.1143Z" fill="white"/>
<path d="M116.91 89.0114H111.728V90.7826L114.504 90.8092C114.034 91.6748 113.18 92.1942 112.055 92.1942C110.333 92.1942 109.237 91.0356 109.237 89.6107C109.237 88.0126 110.376 86.9206 112.027 86.9206C112.895 86.9206 113.863 87.2136 114.29 88.2656H116.81C116.397 86.1083 114.347 84.8564 111.984 84.8564C109.023 84.8564 106.803 86.8407 106.803 89.6639C106.803 92.2608 108.924 94.285 111.956 94.285C113.308 94.285 114.319 93.8056 115.016 93.0065L115.116 94.0985H116.91V89.0114Z" fill="white"/>
<path d="M124.997 89.4375C125.852 89.1579 126.35 88.2923 126.35 87.4533C126.35 85.9751 125.111 85.0429 123.019 85.0429H118.236V94.0985H123.303C125.481 94.0985 126.777 93.0864 126.777 91.5816C126.777 90.6095 126.179 89.6773 124.997 89.4375ZM120.641 86.8807H122.649C123.574 86.8807 124.044 87.1869 124.044 87.7596C124.044 88.3455 123.545 88.7317 122.649 88.7317H120.641V86.8807ZM120.641 92.2341V90.4496H123.033C123.916 90.4496 124.414 90.7293 124.414 91.2886C124.414 91.8213 123.973 92.2341 122.99 92.2341H120.641Z" fill="white"/>
<path d="M135.376 87.0538V85.0429H126.806V87.0538H129.895V94.0985H132.301V87.0538H135.376Z" fill="white"/>
<path d="M138.303 85.0429H135.897V94.0985H138.303V85.0429Z" fill="white"/>
<path d="M153.704 85.0429H151.298V94.0985H153.704V85.0429Z" fill="white"/>
<path d="M163.755 85.0429H161.349V90.1434L156.68 85.0429H154.843V94.0985H157.249V89.1312L161.89 94.0985H163.755V85.0429Z" fill="white"/>
<path d="M175.621 87.0538V85.0429H167.052V87.0538H170.141V94.0985H172.546V87.0538H175.621Z" fill="white"/>
<path d="M178.548 87.0005H183.459V85.0429H176.142V94.0985H183.459V92.1409H178.548V90.5695H182.833V88.6518H178.548V87.0005Z" fill="white"/>
<path d="M188.866 92.1809C187.286 92.1809 186.19 91.0756 186.19 89.5707C186.19 88.0659 187.286 86.9606 188.866 86.9606C190.147 86.9606 191.001 87.6664 191.272 88.7983H193.735C193.436 86.4545 191.528 84.8564 188.88 84.8564C185.962 84.8564 183.756 86.8407 183.756 89.5707C183.756 92.3007 185.962 94.285 188.88 94.285C191.528 94.285 193.436 92.6869 193.735 90.3431H191.272C191.001 91.4751 190.147 92.1809 188.866 92.1809Z" fill="white"/>
<path d="M203.401 85.0429H200.995V88.6785H197.052V85.0429H194.646V94.0985H197.052V90.7027H200.995V94.0985H203.401V85.0429Z" fill="white"/>
<path d="M146.4 88.8219V90.5808L139.685 90.5808V88.8219H146.4Z" fill="white"/>
<path d="M142.103 86.5605H143.983V92.8422H142.103V86.5605Z" fill="white"/>
</svg>
