<?xml version="1.0" encoding="UTF-8" standalone="no"?>
<!DOCTYPE svg PUBLIC "-//W3C//DTD SVG 1.1//EN" "http://www.w3.org/Graphics/SVG/1.1/DTD/svg11.dtd">
<svg width="100%" height="100%" viewBox="0 0 500 500" version="1.1" xmlns="http://www.w3.org/2000/svg" xmlns:xlink="http://www.w3.org/1999/xlink" xml:space="preserve" xmlns:serif="http://www.serif.com/" style="fill-rule:evenodd;clip-rule:evenodd;stroke-linejoin:round;stroke-miterlimit:2;">
    <path d="M250,193.27C218.879,193.27 193.27,218.879 193.27,250C193.27,281.121 218.879,306.73 250,306.73C281.121,306.73 306.73,281.121 306.73,250C306.692,218.893 281.107,193.308 250,193.27Z" style="fill-rule:nonzero;"/>
    <path d="M316.74,105.49L183.26,105.49C140.615,105.539 105.539,140.615 105.49,183.26L105.49,316.74C105.539,359.385 140.615,394.461 183.26,394.51L316.74,394.51C359.385,394.461 394.461,359.385 394.51,316.74L394.51,183.26C394.461,140.615 359.385,105.539 316.74,105.49ZM250,336.7C202.438,336.7 163.3,297.562 163.3,250C163.3,202.438 202.438,163.3 250,163.3C297.562,163.3 336.7,202.438 336.7,250C336.645,297.542 297.542,336.645 250,336.7ZM345.27,176.44C333.525,176.44 323.86,166.775 323.86,155.03C323.86,143.285 333.525,133.62 345.27,133.62C357.004,133.62 366.664,143.266 366.68,155C366.68,155.013 366.68,155.027 366.68,155.04C366.68,166.785 357.015,176.45 345.27,176.45C345.27,176.45 345.27,176.45 345.27,176.45L345.27,176.44Z" style="fill-rule:nonzero;"/>
    <path d="M484.85,124.74C484.822,116.258 484.046,107.795 482.53,99.45C480.59,89.26 477.86,79.33 472.98,70.12C467.897,60.417 461.282,51.596 453.39,44C441.469,32.331 426.741,23.926 410.63,19.6C395.8,15.6 380.63,14.76 365.42,14.78C365.37,14.713 365.338,14.633 365.33,14.55L134.59,14.55L134.59,14.78C125.94,14.94 117.27,14.87 108.67,15.94C99.239,16.937 89.955,19.017 81,22.14C67.074,27.277 54.503,35.527 44.25,46.26C32.497,58.204 24.032,72.988 19.68,89.17C15.74,103.89 14.88,118.9 14.86,134.02L14.7,365.69C14.98,376.14 15.07,386.69 16.83,397.05C18.7,408.05 21.37,418.76 26.47,428.74C33.253,442.112 42.919,453.814 54.77,463C63.23,469.743 72.814,474.939 83.08,478.35C98.2,483.23 113.8,485.1 129.63,485.19C139.51,485.25 149.37,485.5 159.25,485.46C230.99,485.16 302.74,485.98 374.48,485.02C383.957,484.812 393.401,483.808 402.71,482.02C420.314,478.919 436.7,470.942 450,459C465.78,444.92 476.43,427.7 481.24,406.91C484.39,393.32 485.17,379.53 485.31,365.7L485.31,362.94C485.3,361.86 484.89,127.84 484.85,124.74ZM424.47,316.74C424.399,375.814 375.814,424.403 316.74,424.48L183.26,424.48C124.183,424.409 75.591,375.817 75.52,316.74L75.52,183.26C75.591,124.183 124.183,75.591 183.26,75.52L316.74,75.52C375.817,75.591 424.409,124.183 424.48,183.26L424.47,316.74Z" style="fill-rule:nonzero;"/>
</svg>
