<svg width="25" height="25" viewBox="0 0 25 25" fill="none" xmlns="http://www.w3.org/2000/svg">
<path d="M12.0436 22.875C17.5664 22.875 22.0436 18.3978 22.0436 12.875C22.0436 7.35215 17.5664 2.875 12.0436 2.875C6.52073 2.875 2.04358 7.35215 2.04358 12.875C2.04358 18.3978 6.52073 22.875 12.0436 22.875Z" stroke="#FF9F2E" stroke-width="2" stroke-linecap="round" stroke-linejoin="round"/>
<path d="M12.0436 18.875C15.3573 18.875 18.0436 16.1887 18.0436 12.875C18.0436 9.56129 15.3573 6.875 12.0436 6.875C8.72987 6.875 6.04358 9.56129 6.04358 12.875C6.04358 16.1887 8.72987 18.875 12.0436 18.875Z" stroke="#FF9F2E" stroke-width="2" stroke-linecap="round" stroke-linejoin="round"/>
<path d="M12.0436 14.875C13.1481 14.875 14.0436 13.9796 14.0436 12.875C14.0436 11.7704 13.1481 10.875 12.0436 10.875C10.939 10.875 10.0436 11.7704 10.0436 12.875C10.0436 13.9796 10.939 14.875 12.0436 14.875Z" stroke="#FF9F2E" stroke-width="2" stroke-linecap="round" stroke-linejoin="round"/>
</svg>
