<svg width="24" height="25" viewBox="0 0 24 25" fill="none" xmlns="http://www.w3.org/2000/svg">
<path d="M21 16.875V8.87502C20.9996 8.5243 20.9071 8.17983 20.7315 7.87619C20.556 7.57254 20.3037 7.32039 20 7.14502L13 3.14502C12.696 2.96949 12.3511 2.87708 12 2.87708C11.6489 2.87708 11.304 2.96949 11 3.14502L4 7.14502C3.69626 7.32039 3.44398 7.57254 3.26846 7.87619C3.09294 8.17983 3.00036 8.5243 3 8.87502V16.875C3.00036 17.2258 3.09294 17.5702 3.26846 17.8739C3.44398 18.1775 3.69626 18.4297 4 18.605L11 22.605C11.304 22.7806 11.6489 22.873 12 22.873C12.3511 22.873 12.696 22.7806 13 22.605L20 18.605C20.3037 18.4297 20.556 18.1775 20.7315 17.8739C20.9071 17.5702 20.9996 17.2258 21 16.875Z" stroke="#FFD602" stroke-width="2" stroke-linecap="round" stroke-linejoin="round"/>
<path d="M3.27002 7.83496L12 12.885L20.73 7.83496" stroke="#FFD602" stroke-width="2" stroke-linecap="round" stroke-linejoin="round"/>
<path d="M12 22.955V12.875" stroke="#FFD602" stroke-width="2" stroke-linecap="round" stroke-linejoin="round"/>
</svg>
