<svg width="120" height="60" viewBox="0 0 120 60" fill="none" xmlns="http://www.w3.org/2000/svg">
<path d="M93.1421 59.9998H101C100.987 37.3826 82.6094 19.0072 59.9963 19.0072L59.9963 18.9998C37.3771 19.0126 19 37.3887 19 59.9997H26.861C26.861 41.722 41.7125 26.8698 59.9963 26.8569V26.8675C78.2757 26.8675 93.1292 41.7177 93.1421 59.9998Z" fill="#5A08FC"/>
<path fill-rule="evenodd" clip-rule="evenodd" d="M59.9963 37.5384C72.3704 37.5384 82.4616 47.6247 82.4745 59.9997H59.9725V45.4283C51.9685 45.4283 45.3939 51.9997 45.3939 59.9997H37.5329C37.5329 47.6268 47.6201 37.5365 59.9963 37.5236V37.5384ZM59.9963 59.9759H74.569C74.569 51.9727 67.997 45.3987 59.9963 45.3987V59.9759Z" fill="#5A08FC"/>
<path d="M112.08 59.9998C112.067 31.2953 88.696 7.92294 60 7.92294L60 7.91978C31.2955 7.93281 7.92318 31.3038 7.92318 59.9997H0C1.44527e-06 26.9357 26.9258 0.0127937 60 -0.000244141C93.064 -0.00024125 119.987 26.9255 120 59.9998H112.08Z" fill="#F1D703"/>
</svg>
