<svg width="94" height="60" viewBox="0 0 94 60" fill="none" xmlns="http://www.w3.org/2000/svg">
<path d="M34 58.0435L34 60L41.8922 60C41.9009 31.2957 65.286 7.92212 94 7.92212L94 -2.62268e-06C61.5705 -1.20515e-06 35.0455 25.8711 34 58.0435Z" fill="#F1D703"/>
<path d="M94 18.677C71.1932 18.677 52.6586 37.2013 52.65 60L60.5742 60C60.5829 41.5704 75.5635 26.5991 94 26.5991L94 18.677Z" fill="#F1D703"/>
<path fill-rule="evenodd" clip-rule="evenodd" d="M94 37.354C81.5187 37.354 71.3406 47.524 71.3319 60L94 60M94 37.354L94 45.2761C85.8837 45.2761 79.3042 51.8538 79.3042 59.968L94 59.968" fill="#F1D703"/>
<path d="M60 58.0435L60 60L52.1078 60C52.0991 31.2957 28.714 7.92212 9.1677e-06 7.92212L8.82141e-06 2.62268e-06C32.4295 1.20515e-06 58.9545 25.8711 60 58.0435Z" fill="#5A08FC"/>
<path d="M9.63781e-06 18.677C22.8068 18.677 41.3414 37.2013 41.35 60L33.4258 60C33.4171 41.5704 18.4365 26.5991 9.98409e-06 26.5991L9.63781e-06 18.677Z" fill="#5A08FC"/>
<path fill-rule="evenodd" clip-rule="evenodd" d="M1.04542e-05 37.354C12.4813 37.354 22.6594 47.524 22.6681 60L3.8147e-06 60M1.04542e-05 37.354L1.08005e-05 45.2761C8.11634 45.2761 14.6958 51.8538 14.6958 59.968L3.8133e-06 59.968" fill="#5A08FC"/>
</svg>
