<svg width="120" height="60" viewBox="0 0 120 60" fill="none" xmlns="http://www.w3.org/2000/svg">
<path d="M0 58.0435L1.71064e-07 60H7.89222C7.90091 31.2957 31.286 7.92212 60 7.92212V0C27.5705 1.41754e-06 1.0455 25.8711 0 58.0435Z" fill="#F1D703"/>
<path d="M60 18.677C37.1932 18.677 18.6586 37.2013 18.65 60H26.5742C26.5829 41.5704 41.5635 26.5991 60 26.5991V18.677Z" fill="#F1D703"/>
<path fill-rule="evenodd" clip-rule="evenodd" d="M60 37.354C47.5187 37.354 37.3406 47.524 37.3319 60H60M60 37.354V45.2761C51.8837 45.2761 45.3042 51.8538 45.3042 59.968H60" fill="#F1D703"/>
<path d="M61.9565 4.50162e-06L60 0L60 7.89222C88.7043 7.90092 112.078 31.286 112.078 60H120C120 27.5705 94.1289 1.0455 61.9565 4.50162e-06Z" fill="#F1D703"/>
<path d="M101.323 60C101.323 37.1932 82.7987 18.6586 60 18.65V26.5742C78.4296 26.5829 93.4009 41.5635 93.4009 60H101.323Z" fill="#F1D703"/>
<path fill-rule="evenodd" clip-rule="evenodd" d="M82.646 60C82.646 47.5187 72.476 37.3406 60 37.3319V60M82.646 60H74.7239C74.7239 51.8837 68.1462 45.3042 60.032 45.3042V60" fill="#F1D703"/>
</svg>
